HIERARCHY
ROOT Hips
{
	OFFSET 0.00000 0.00000 0.00000
	CHANNELS 6 Xposition Yposition Zposition Zrotation Yrotation Xrotation 
	JOINT LHipJoint
	{
		OFFSET 0 0 0
		CHANNELS 3 Zrotation Yrotation Xrotation
		JOINT LeftUpLeg
		{
			OFFSET 1.37590 -1.78394 0.89329
			CHANNELS 3 Zrotation Yrotation Xrotation
			JOINT LeftLeg
			{
				OFFSET 2.47928 -6.81178 0.00000
				CHANNELS 3 Zrotation Yrotation Xrotation
				JOINT LeftFoot
				{
					OFFSET 2.63345 -7.23535 0.00000
					CHANNELS 3 Zrotation Yrotation Xrotation
					JOINT LeftToeBase
					{
						OFFSET 0.23938 -0.65768 2.27012
						CHANNELS 3 Zrotation Yrotation Xrotation
						End Site
						{
							OFFSET 0.00000 -0.00000 1.18363
						}
					}
				}
			}
		}
	}
	JOINT RHipJoint
	{
		OFFSET 0 0 0
		CHANNELS 3 Zrotation Yrotation Xrotation
		JOINT RightUpLeg
		{
			OFFSET -1.33617 -1.78394 0.89329
			CHANNELS 3 Zrotation Yrotation Xrotation
			JOINT RightLeg
			{
				OFFSET -2.56922 -7.05888 0.00000
				CHANNELS 3 Zrotation Yrotation Xrotation
				JOINT RightFoot
				{
					OFFSET -2.56568 -7.04915 0.00000
					CHANNELS 3 Zrotation Yrotation Xrotation
					JOINT RightToeBase
					{
						OFFSET -0.27533 -0.75646 2.18105
						CHANNELS 3 Zrotation Yrotation Xrotation
						End Site
						{
							OFFSET -0.00000 -0.00000 1.15233
						}
					}
				}
			}
		}
	}
	JOINT LowerBack
	{
		OFFSET 0 0 0
		CHANNELS 3 Zrotation Yrotation Xrotation
		JOINT Spine
		{
			OFFSET 0.06190 2.15152 -0.00935
			CHANNELS 3 Zrotation Yrotation Xrotation
			JOINT Spine1
			{
				OFFSET 0.06334 2.15332 0.00872
				CHANNELS 3 Zrotation Yrotation Xrotation
				JOINT Neck
				{
					OFFSET 0 0 0
					CHANNELS 3 Zrotation Yrotation Xrotation
					JOINT Neck1
					{
						OFFSET -0.04202 1.66908 0.23524
						CHANNELS 3 Zrotation Yrotation Xrotation
						JOINT Head
						{
							OFFSET 0.07510 1.69357 -0.24440
							CHANNELS 3 Zrotation Yrotation Xrotation
							End Site
							{
								OFFSET 0.02556 1.71719 -0.11000
							}
						}
					}
				}
				JOINT LeftShoulder
				{
					OFFSET 0 0 0
					CHANNELS 3 Zrotation Yrotation Xrotation
					JOINT LeftArm
					{
						OFFSET 3.67168 1.26306 -0.41342
						CHANNELS 3 Zrotation Yrotation Xrotation
						JOINT LeftForeArm
						{
							OFFSET 4.68510 -0.00000 -0.00000
							CHANNELS 3 Zrotation Yrotation Xrotation
							JOINT LeftHand
							{
								OFFSET 3.39626 -0.00000 -0.00000
								CHANNELS 3 Zrotation Yrotation Xrotation
								JOINT LeftFingerBase
								{
									OFFSET 0 0 0
									CHANNELS 3 Zrotation Yrotation Xrotation
									JOINT LeftHandIndex1
									{
										OFFSET 0.48608 -0.00000 -0.00000
										CHANNELS 3 Zrotation Yrotation Xrotation
										End Site
										{
											OFFSET 0.39189 -0.00000 -0.00000
										}
									}
								}
								JOINT LThumb
								{
									OFFSET 0 0 0
									CHANNELS 3 Zrotation Yrotation Xrotation
									End Site
									{
										OFFSET 0.39787 -0.00000 0.39787
									}
								}
							}
						}
					}
				}
				JOINT RightShoulder
				{
					OFFSET 0 0 0
					CHANNELS 3 Zrotation Yrotation Xrotation
					JOINT RightArm
					{
						OFFSET -3.04136 1.42992 -0.76390
						CHANNELS 3 Zrotation Yrotation Xrotation
						JOINT RightForeArm
						{
							OFFSET -5.55576 -0.00000 -0.00000
							CHANNELS 3 Zrotation Yrotation Xrotation
							JOINT RightHand
							{
								OFFSET -3.32774 -0.00000 -0.00000
								CHANNELS 3 Zrotation Yrotation Xrotation
								JOINT RightFingerBase
								{
									OFFSET 0 0 0
									CHANNELS 3 Zrotation Yrotation Xrotation
									JOINT RightHandIndex1
									{
										OFFSET -0.50763 -0.00000 -0.00000
										CHANNELS 3 Zrotation Yrotation Xrotation
										End Site
										{
											OFFSET -0.40926 -0.00000 -0.00000
										}
									}
								}
								JOINT RThumb
								{
									OFFSET 0 0 0
									CHANNELS 3 Zrotation Yrotation Xrotation
									End Site
									{
										OFFSET -0.41551 -0.00000 0.41551
									}
								}
							}
						}
					}
				}
			}
		}
	}
}
MOTION
Frames: 14
Frame Time: 0.0266667
0.00 0.00 0.00 0 0 0 0 0 0 -21 0 0 0 0 0 0 0 0 0 0 0 0 0 0 21 0 0 0 0 0 0 0 0 0 0 0 0 0 0 0 0 0 0 0 0 0 0 -16 0 0 21 0 0 11 0 0 0 -8 0 0 0 0 0 0 0 0 0 0 0 0 0 0 0 0 0 0 0 0 8 0 0 0 0 0 0 0 0 0 0 0 0 0 0 0 0 0
0.00 0.00 0.00 98.9147 -87.5927 -101.8090 0.0000 0.0000 0.0000 -26.8974 -6.8444 -4.5569 1.6984 8.2074 23.3459 0.4419 -3.6819 -11.8370 0.1313 2.3356 6.4341 0.0000 0.0000 0.0000 6.1187 9.8397 -60.7492 -12.5989 -18.6325 67.8749 -39.0102 15.6672 -160.4763 -2.1520 -9.1758 26.3468 -3.1415 -2.9739 6.3163 0.7039 -4.1830 -0.8187 2.8873 -1.9959 -4.1091 -4.8474 -2.0761 -20.9292 6.7970 -2.8057 15.7396 2.7280 -0.9075 8.5101 0.0000 0.0000 0.0000 -89.9484 -13.3707 41.7884 38.9266 -47.4210 -17.6448 -0.0000 -0.0000 1.2401 10.8025 10.8869 2.0639 -7.1250 0.0000 -0.0000 -14.3265 40.6356 1.5786 0.0000 0.0000 0.0000 78.9356 -12.3784 13.8392 -13.3176 21.7509 -2.5698 0.0000 0.0000 14.3601 -7.4971 -11.0623 1.4465 7.1250 -0.0000 -0.0000 17.1917 -40.5193 1.9657
0.00 0.00 0.00 -1.1759 -84.9532 -4.6216 0.0000 0.0000 0.0000 -24.4625 -5.1680 8.7112 1.2151 6.9923 19.6927 0.4578 -6.5962 -12.2101 0.0031 -0.3601 -0.9894 0.0000 0.0000 0.0000 1.9521 12.5636 -88.9040 -16.9163 -19.7705 80.9506 -37.8890 2.0360 -153.0581 -1.8737 -8.5980 24.5457 -2.9819 -5.7042 10.2939 2.7499 -7.8477 0.1124 5.6227 -3.8047 -4.8302 -3.9414 -1.0881 -21.8596 5.4380 -1.4031 15.7979 2.3065 -0.3163 8.5801 -0.0000 -0.0000 0.0000 -82.7035 -26.6401 44.1861 43.6228 -50.0757 -21.1772 -0.0000 -0.0000 1.1204 9.1909 10.1520 1.6336 -7.1250 0.0000 -0.0000 -15.5166 39.7810 2.0533 -0.0000 -0.0000 0.0000 74.4639 -26.9614 1.6069 -13.7191 22.3317 -2.7205 0.0000 0.0000 19.1369 1.6158 -14.8456 -0.4141 7.1250 -0.0000 -0.0000 26.1862 -43.1482 1.2927
0.00 0.00 0.00 4.9432 -85.0740 -10.2393 0.0000 0.0000 0.0000 -24.5549 -4.8248 9.1823 1.2070 6.9698 19.6260 0.3948 -7.8401 -11.6786 0.0297 -1.1132 -3.0605 0.0000 0.0000 0.0000 2.0784 12.6302 -87.4950 -19.1936 -19.9844 87.6416 -43.6371 -40.6813 -135.3474 -1.7572 -8.3409 23.7544 -3.3198 -5.6568 10.0443 2.6040 -7.8212 0.0794 5.6226 -3.7873 -4.7047 -3.9814 -1.1338 -21.8832 5.5180 -1.4571 15.5303 2.3300 -0.3358 8.4969 -0.0000 0.0000 0.0000 -82.2940 -26.6302 43.6080 43.6709 -50.1005 -21.2141 -0.0000 -0.0000 1.1065 9.2610 10.2571 1.6631 -7.1250 0.0000 -0.0000 -15.4835 39.8891 2.0062 -0.0000 0.0000 0.0000 75.1859 -26.9788 1.0029 -13.0719 21.3924 -2.4794 0.0000 0.0000 16.4591 -2.4856 -12.6978 0.5467 7.1250 -0.0000 -0.0000 21.9340 -41.6057 1.9410
0.00 0.00 0.00 6.8262 -85.1600 -11.8995 0.0000 0.0000 0.0000 -24.5845 -4.7173 9.3316 1.1967 6.9413 19.5415 0.3789 -8.1317 -11.5569 0.0433 -1.3425 -3.6916 0.0000 0.0000 0.0000 2.2036 12.6594 -86.7472 -19.6016 -19.9962 88.8350 -50.6490 -54.0256 -123.9582 -1.7445 -8.3122 23.6664 -3.3741 -5.6266 9.8999 2.5583 -7.7841 0.0436 5.5853 -3.7682 -4.6654 -3.9952 -1.1483 -21.8664 5.5283 -1.4715 15.4459 2.3327 -0.3427 8.4663 0.0000 -0.0000 0.0000 -82.2341 -26.4611 43.3967 43.6876 -50.1091 -21.2269 -0.0000 -0.0000 1.1228 9.2740 10.2984 1.6721 -7.1250 0.0000 -0.0000 -15.4829 39.9304 1.9899 0.0000 -0.0000 0.0000 75.4592 -26.9290 1.0058 -12.8738 21.1020 -2.4076 0.0000 0.0000 15.3443 -4.0104 -11.6027 0.8079 7.1250 -0.0000 -0.0000 20.2947 -40.7252 2.2448
0.00 0.00 0.00 8.8431 -85.2637 -13.6592 0.0000 0.0000 0.0000 -24.6324 -4.6073 9.4542 1.1858 6.9105 19.4505 0.3676 -8.3519 -11.4784 0.0585 -1.5613 -4.2947 0.0000 0.0000 0.0000 2.3409 12.6999 -85.8826 -19.6758 -19.9975 89.0521 -60.4102 -65.3441 -102.7813 -1.7374 -8.2963 23.6178 -3.4232 -5.5868 9.7510 2.5165 -7.7329 -0.0259 5.5499 -3.7400 -4.6607 -4.0132 -1.1626 -21.8349 5.5288 -1.4836 15.3827 2.3333 -0.3500 8.4401 0.0000 0.0000 0.0000 -82.2144 -26.1848 43.1957 43.7149 -50.1232 -21.2479 -0.0000 -0.0000 1.1186 9.2647 10.3492 1.6786 -7.1250 0.0000 -0.0000 -15.5036 39.9792 1.9736 0.0000 0.0000 0.0000 75.7338 -26.8652 1.0082 -12.7220 20.8786 -2.3533 0.0000 0.0000 14.5551 -5.0820 -10.7032 0.9462 7.1250 -0.0000 -0.0000 19.1256 -39.9701 2.4763
0.00 0.00 0.00 11.0962 -85.3701 -15.6082 0.0000 0.0000 0.0000 -24.7129 -4.5144 9.5410 1.1750 6.8802 19.3609 0.3607 -8.5054 -11.4383 0.0733 -1.7460 -4.8043 0.0000 0.0000 0.0000 2.4710 12.7349 -84.9340 -19.3929 -19.9912 88.2248 61.1526 -70.6128 -63.1739 -1.7301 -8.2796 23.5667 -3.4633 -5.5463 9.5367 2.4676 -7.6781 -0.1019 5.4944 -3.7112 -4.6288 -4.0238 -1.1733 -21.8065 5.5226 -1.4918 15.3236 2.3309 -0.3558 8.4156 0.0000 -0.0000 0.0000 -82.2039 -25.8475 42.9973 43.7462 -50.1392 -21.2719 -0.0000 -0.0000 1.0751 9.2523 10.3935 1.6834 -7.1250 0.0000 -0.0000 -15.5253 40.0212 1.9599 0.0000 -0.0000 0.0000 76.0258 -26.7485 1.0226 -12.6301 20.7429 -2.3206 0.0000 0.0000 14.1074 -5.6706 -10.1331 1.0008 7.1250 -0.0000 -0.0000 18.4719 -39.4775 2.6185
0.00 0.00 0.00 13.6303 -85.4735 -17.7993 0.0000 0.0000 0.0000 -24.8213 -4.4235 9.5949 1.1642 6.8495 19.2703 0.3585 -8.6056 -11.4410 0.0882 -1.9151 -5.2710 0.0000 0.0000 0.0000 2.5888 12.7704 -83.8987 -18.7863 -19.9646 86.4494 29.8358 -65.6284 -23.1060 -1.7125 -8.2397 23.4446 -3.5089 -5.5004 9.3037 2.4180 -7.6158 -0.2049 5.4406 -3.6772 -4.6150 -4.0434 -1.1878 -21.7557 5.5107 -1.5020 15.2662 2.3278 -0.3639 8.3880 -0.0000 0.0000 0.0000 -82.2136 -25.4298 42.8271 43.7744 -50.1538 -21.2936 -0.0000 -0.0000 0.9810 9.2230 10.4399 1.6854 -7.1250 0.0000 -0.0000 -15.5619 40.0639 1.9479 -0.0000 0.0000 0.0000 76.3160 -26.6195 1.0412 -12.6194 20.7271 -2.3169 0.0000 0.0000 14.0968 -5.6172 -10.0812 0.9863 7.1250 -0.0000 -0.0000 18.5020 -39.4237 2.6487
0.00 0.00 0.00 16.4559 -85.5503 -20.2442 0.0000 0.0000 0.0000 -24.9633 -4.3485 9.6139 1.1547 6.8226 19.1908 0.3598 -8.6739 -11.4784 0.1023 -2.0627 -5.6791 0.0000 0.0000 0.0000 2.6811 12.7812 -82.7916 -17.9479 -19.8987 83.9904 12.4091 -54.5562 -1.3002 -1.6878 -8.1829 23.2711 -3.5658 -5.4551 9.0306 2.3652 -7.5545 -0.3158 5.3858 -3.6440 -4.5857 -4.0651 -1.2033 -21.7234 5.4980 -1.5126 15.2182 2.3249 -0.3720 8.3668 -0.0000 0.0000 0.0000 -82.2371 -24.9663 42.6835 43.7956 -50.1646 -21.3099 -0.0000 -0.0000 0.8314 9.1903 10.4830 1.6861 -7.1250 0.0000 -0.0000 -15.6007 40.1032 1.9375 -0.0000 0.0000 0.0000 76.6121 -26.4583 1.1500 -12.6354 20.7507 -2.3225 0.0000 0.0000 14.0609 -5.5879 -10.0365 0.9768 7.1250 -0.0000 -0.0000 18.5141 -39.3788 2.6720
0.00 0.00 0.00 29.2359 -85.3022 -30.1924 0.0000 0.0000 0.0000 -25.3656 -3.7139 9.7589 1.0773 6.5974 18.5281 0.3831 -9.7418 -12.1029 0.1749 -2.6937 -7.4270 0.0000 0.0000 0.0000 3.4905 12.0347 -72.5380 -12.4281 -18.5658 67.3395 -0.2931 -26.1902 20.2958 -1.7248 -8.2676 23.5297 -3.8196 -5.1927 6.9100 2.1446 -7.1696 -1.1553 5.0747 -3.4403 -4.3171 -4.2528 -1.4494 -21.6386 5.4488 -1.7674 14.8910 2.3009 -0.5103 8.2560 -0.0000 0.0000 0.0000 -82.7205 -20.6514 43.0053 43.4469 -49.9845 -21.0424 -0.0000 0.0000 -1.0777 9.4234 11.3537 1.8714 -7.1250 0.0000 -0.0000 -15.6283 40.9707 1.5970 -0.0000 0.0000 0.0000 78.8017 -25.0573 4.2913 -13.7610 22.3920 -2.7364 0.0000 0.0000 11.6035 -5.5547 -10.1575 0.9826 7.1250 -0.0000 -0.0000 18.5753 -39.4912 2.6279
0.00 0.00 0.00 20.7321 -84.3556 -18.5563 0.0000 0.0000 0.0000 -22.8969 -2.3484 11.4472 0.9155 6.0965 17.0646 0.2952 -12.6916 -12.3647 0.3257 -3.6683 -10.1454 0.0000 0.0000 0.0000 7.5169 8.9203 -55.5181 -7.7212 -15.9103 51.5522 -0.8090 -23.4816 21.7868 -1.6570 -8.1117 23.0540 -3.4124 -4.8608 3.4599 2.3385 -6.6045 -2.2656 4.7200 -3.1794 -3.6160 -4.6590 -2.0689 -21.0266 5.8072 -2.5733 14.6023 2.3788 -0.8889 8.1087 0.0000 0.0000 0.0000 -83.1438 -12.0157 46.0223 40.7000 -48.4792 -18.9617 -0.0000 -0.0000 0.2554 9.8264 11.7042 2.0123 -7.1250 0.0000 -0.0000 -15.3758 41.3487 1.4224 0.0000 0.0000 0.0000 81.7852 -21.8741 10.4807 -16.2204 25.8185 -3.7414 0.0000 0.0000 6.7630 -7.4455 -11.8779 1.5408 7.1250 -0.0000 -0.0000 17.4665 -41.2979 1.6514
0.00 0.00 0.00 9.8589 -84.8944 -6.2374 0.0000 0.0000 0.0000 -20.3941 -1.9978 12.0443 1.0740 6.5878 18.4998 0.1109 -13.6449 -10.8774 0.6219 -5.0466 -14.0414 0.0000 0.0000 0.0000 12.3339 7.0006 -45.1220 -6.2618 -14.6773 46.0236 0.0784 -12.2848 7.5077 -0.2276 -3.0707 8.4756 -2.7584 -4.3317 0.7899 2.7268 -5.8211 -2.8852 4.5184 -2.8234 -2.8583 -4.9511 -2.4035 -20.8153 5.7927 -2.9696 15.0372 2.3734 -1.0969 8.2457 -0.0000 0.0000 0.0000 -83.1824 -5.3558 47.3037 37.4827 -46.5057 -16.5893 -0.0000 -0.0000 1.9878 7.1495 12.8796 1.6016 -7.1250 0.0000 -0.0000 -18.0194 42.2290 1.2775 -0.0000 0.0000 0.0000 83.2074 -18.8604 15.6595 -17.8846 28.0091 -4.4949 0.0000 0.0000 3.6257 -8.6306 -13.2293 1.9894 7.1250 -0.0000 -0.0000 16.8443 -42.7124 0.9810
0.00 0.00 0.00 -63.8055 -87.1239 68.0221 0.0000 0.0000 0.0000 -14.0859 -1.2564 4.5886 3.4694 11.4188 33.7056 -0.5966 -13.5568 4.1599 1.4013 -7.4883 -21.1704 0.0000 0.0000 0.0000 20.6603 8.6147 -32.6892 -3.9217 -12.0555 35.9284 -0.0295 -3.0983 -5.7488 -0.8657 -5.9327 16.5893 -0.2282 -2.3270 -1.3666 3.5461 -3.1249 -3.1354 3.7954 -1.5500 -2.2464 -4.8971 -2.5366 -21.2335 5.2472 -3.0778 15.9692 2.1703 -1.1930 8.6289 0.0000 0.0000 0.0000 -83.1747 4.7679 45.4503 30.1248 -41.0001 -11.4914 -0.0000 -0.0000 6.7072 4.8285 12.3603 1.0359 -7.1250 0.0000 -0.0000 -19.8419 41.5130 1.7853 0.0000 0.0000 0.0000 85.4010 -11.0711 25.3679 -21.4886 32.3942 -6.3097 0.0000 0.0000 0.2818 -10.3494 -13.9735 2.5250 7.1250 -0.0000 -0.0000 15.5633 -43.6131 0.5467
0.00 0.00 0.00 -103.5950 -85.0478 106.6790 0.0000 0.0000 0.0000 -10.4157 -0.9519 -1.9543 5.9539 14.3835 44.7962 0.6191 -7.9081 19.7917 0.5452 -4.7306 -13.1417 0.0000 0.0000 0.0000 24.5332 9.3793 -29.0329 -3.7107 -11.7651 34.9061 -0.0695 -1.7485 -5.9469 -0.9531 -6.2170 17.4152 2.2537 -1.1454 -0.2909 3.8103 -1.5184 -2.5220 2.6849 -0.8006 -2.3827 -4.9536 -2.5890 -21.6362 5.3186 -3.1144 15.7234 2.1962 -1.1993 8.6185 -0.0000 0.0000 0.0000 -83.0774 8.4979 42.3466 26.5631 -37.7594 -9.2303 -0.0000 -0.0000 10.0602 3.4111 12.0133 0.7108 -7.1250 0.0000 -0.0000 -20.9284 41.0554 2.1423 -0.0000 0.0000 0.0000 86.3066 -5.8569 30.4030 -24.0189 35.1842 -7.7174 0.0000 -0.0000 -1.1938 -10.4446 -14.0337 2.5595 7.1250 -0.0000 -0.0000 15.4975 -43.6821 0.5172
